<?xml version="1.0" encoding="UTF-8"?>
<svg xmlns="http://www.w3.org/2000/svg" width="36" height="35" viewBox="0 0 36 35" fill="none">
  <rect x="1" y="0.5" width="34" height="34" rx="17" fill="#2B65E8"></rect>
  <rect x="1" y="0.5" width="34" height="34" rx="17" stroke="#2B65E8"></rect>
  <path d="M28.9499 13.4254L28.9496 13.4256L28.9499 13.4254ZM28.7699 13.5839L23.1605 18.5248C22.9091 18.7462 22.8015 19.0891 22.8813 19.4145L24.7132 26.8841L18.4892 22.7972C18.1893 22.6003 17.8011 22.6003 17.5012 22.7972L11.2773 26.8841L13.1092 19.4143C13.189 19.0891 13.0816 18.7465 12.8305 18.525L7.22878 13.5839L14.4903 13.0874C14.8399 13.0635 15.1439 12.8388 15.2693 12.5115L17.9952 5.39742L20.7211 12.5115C20.8465 12.8388 21.1505 13.0635 21.5002 13.0874L28.7699 13.5839ZM11.2168 27.1311L11.2168 27.1309L11.2168 27.1311Z" fill="white" stroke="#2B65E8"></path>
</svg>
