<svg width="40" height="40" viewBox="0 0 40 40" fill="none" xmlns="http://www.w3.org/2000/svg">
<g opacity="0.21">
<path d="M35.2196 37.2358C36.2287 37.2358 37.1964 36.8341 37.91 36.1192C38.6235 35.4043 39.0244 34.4347 39.0244 33.4237V24.1145C39.0244 23.1035 38.6235 22.1338 37.91 21.4189C37.1964 20.704 36.2287 20.3024 35.2196 20.3024H29.9385C29.9385 18.9631 30.0171 17.6238 30.1744 16.2844C30.4103 14.8663 30.8035 13.6058 31.3539 12.5028C31.9043 11.3999 32.6133 10.532 33.4808 9.89917C34.3432 9.19011 35.4441 8.83559 36.7834 8.83559V2.92683C34.5816 2.92683 32.6539 3.39953 31 4.34493C29.3577 5.27842 27.9466 6.57103 26.8718 8.12654C25.7898 9.83874 24.993 11.716 24.5128 13.6846C24.0273 15.8565 23.7899 18.0767 23.8052 20.3024V33.4237C23.8052 34.4347 24.206 35.4043 24.9196 36.1192C25.6331 36.8341 26.6009 37.2358 27.61 37.2358H35.2196ZM12.3907 37.2358C13.3998 37.2358 14.3676 36.8341 15.0811 36.1192C15.7947 35.4043 16.1955 34.4347 16.1955 33.4237V24.1145C16.1955 23.1035 15.7947 22.1338 15.0811 21.4189C14.3676 20.704 13.3998 20.3024 12.3907 20.3024H7.10965C7.10965 18.9631 7.18829 17.6238 7.34555 16.2844C7.58399 14.8663 7.97715 13.6058 8.52504 12.5028C9.07547 11.3999 9.78444 10.532 10.6519 9.89917C11.5144 9.19011 12.6152 8.83559 13.9545 8.83559V2.92683C11.7528 2.92683 9.82502 3.39953 8.1712 4.34493C6.52882 5.27842 5.11774 6.57103 4.04298 8.12654C2.96093 9.83874 2.16419 11.716 1.684 13.6846C1.19844 15.8565 0.961016 18.0767 0.976302 20.3024V33.4237C0.976302 34.4347 1.37716 35.4043 2.0907 36.1192C2.80424 36.8341 3.77201 37.2358 4.78111 37.2358H12.3907Z" fill="#2B65E8"/>
</g>
</svg>
