<svg width="24" height="24" viewBox="0 0 24 24" fill="none" xmlns="http://www.w3.org/2000/svg">
<path d="M23.2803 9.80061C23.5471 9.56569 23.3978 9.12559 23.0432 9.10137L15.5343 8.58854C15.3789 8.57792 15.2438 8.47805 15.188 8.33259L12.3687 0.974811C12.2375 0.632306 11.7529 0.632306 11.6217 0.974811L8.80241 8.33261C8.74668 8.47806 8.61158 8.57793 8.45618 8.58855L0.955737 9.10137C0.601299 9.12561 0.451991 9.56541 0.71842 9.80042L6.49973 14.9C6.61134 14.9984 6.65907 15.1507 6.62362 15.2952L4.73114 23.012C4.64459 23.3649 5.03544 23.6411 5.33918 23.4416L11.7757 19.2152C11.909 19.1277 12.0815 19.1277 12.2148 19.2152L18.6513 23.4416C18.955 23.6411 19.3459 23.3649 19.2593 23.012L17.3669 15.2954C17.3314 15.1508 17.3793 14.9984 17.491 14.9L23.2803 9.80061Z" fill="#FFA600"/>
</svg>
