<?xml version="1.0" encoding="UTF-8"?>
<svg xmlns="http://www.w3.org/2000/svg" width="164" height="42" viewBox="0 0 164 42" fill="none">
  <path fill-rule="evenodd" clip-rule="evenodd" d="M24.9376 16.3529C24.9575 16.6577 25.1614 16.8836 25.2831 17.1434C25.4475 17.494 25.6506 17.8257 25.8371 18.1656C26.0335 18.5238 26.2292 18.8823 26.4267 19.2399C26.6687 19.678 26.9134 20.1144 27.0978 20.5822C27.1766 20.7826 27.2639 20.9797 27.3344 21.1829C27.4741 21.5861 27.3828 21.8643 27.1068 22.206C27.097 22.2181 27.0775 22.2227 27.0694 22.2354C26.846 22.5797 26.4921 22.6402 26.1299 22.709C25.8097 22.7698 25.4912 22.85 25.2528 23.1187C25.0101 23.3921 24.9818 23.6119 25.1855 23.9217C25.3859 24.2265 25.5853 24.5319 25.7821 24.8392C25.825 24.9062 25.8598 24.9797 25.8889 25.054C26.0276 25.409 25.8657 25.8603 25.5423 26.0602C25.3771 26.1622 25.2202 26.2793 25.0662 26.3986C24.9411 26.4956 24.9491 26.533 25.0453 26.6753C25.2605 26.9938 25.4516 27.322 25.4573 27.7287C25.461 27.9923 25.3668 28.1672 25.1404 28.322C24.8136 28.5453 24.4399 28.6349 24.0925 28.7958C23.6364 29.0069 23.4482 29.3588 23.7552 29.8357C24.053 30.2982 24.1741 30.7966 24.0727 31.3309C24.0247 31.5847 23.9467 31.8415 23.8071 32.0733C23.6132 32.3955 23.4027 32.7001 23.1136 32.9403C22.9429 33.0821 22.7625 33.1994 22.538 33.2491C22.3232 33.2966 22.1207 33.4072 21.9053 33.4453C21.3517 33.5434 20.8108 33.7069 20.2449 33.746C19.8353 33.7743 19.4303 33.8645 19.0217 33.9148C18.7779 33.9449 18.5299 33.9403 18.286 33.9702C17.3782 34.081 16.4657 34.0457 15.5553 34.0777C15.2649 34.088 14.9868 34.1895 14.7063 34.2755C14.4407 34.3572 14.2362 34.5286 14.0063 34.6615C13.9155 34.7139 13.837 34.8092 13.7831 34.9028C13.6727 35.0946 13.5849 35.2996 13.4839 35.4972C13.3549 35.75 13.2191 35.9992 13.0915 36.2527C12.9584 36.5172 12.8331 36.7856 12.7015 37.051C12.4139 37.6317 12.1235 38.211 11.8365 38.792C11.6594 39.1507 11.4879 39.5122 11.3114 39.8714C11.0574 40.3887 10.8018 40.9051 10.5454 41.4213C10.5114 41.49 10.4691 41.5545 10.3884 41.6119C10.374 40.3156 10.361 39.0193 10.3448 37.723C10.3285 36.4225 10.309 35.122 10.2904 33.7804C10.4224 33.7715 10.5311 33.7585 10.64 33.7579C10.9179 33.7563 11.1958 33.762 11.4739 33.7616C11.7894 33.7611 11.7992 33.7519 11.7996 33.4394C11.8007 32.7274 11.7997 32.0153 11.7996 31.3033V30.9758C11.9531 30.8521 12.121 30.8819 12.2729 30.8812C13.4008 30.876 14.5287 30.8802 15.6565 30.8856C15.8609 30.8865 16.065 30.9061 16.2168 30.9143C16.3908 31.1445 16.5141 31.3537 16.6801 31.5178C17.0698 31.9028 17.7055 32.0589 18.2286 31.7631C18.5228 31.5969 18.746 31.381 18.9073 31.084C19.1348 30.665 19.0204 29.9929 18.7161 29.6232C18.5241 29.3901 18.3051 29.2395 18.04 29.1338C17.7813 29.0306 17.5337 29.049 17.2614 29.1272C16.9361 29.2206 16.7084 29.4226 16.5001 29.6616C16.4148 29.7596 16.3645 29.894 16.3154 30.0188C16.2692 30.1361 16.1746 30.1761 16.0753 30.1861C15.9042 30.2034 15.7308 30.199 15.5585 30.1991C13.8903 30.2001 12.2222 30.2004 10.5541 30.2006C10.2861 30.2006 10.2623 30.1793 10.2589 29.917C10.2532 29.4801 10.2485 29.0432 10.2477 28.6063C10.247 28.2145 10.2497 28.2127 10.6279 28.2129C11.184 28.2132 11.74 28.2176 12.296 28.2167C12.3967 28.2166 12.4973 28.1993 12.618 28.1881V27.9018C12.6182 27.036 12.6181 26.1703 12.6184 25.3045C12.6185 25.099 12.613 25.0885 12.4042 25.0874C11.7766 25.0838 11.1492 25.0839 10.5216 25.0827C10.4273 25.0825 10.3329 25.0827 10.22 25.0827V23.4488C10.3452 23.4412 10.4693 23.4273 10.5934 23.4273C11.7929 23.4271 12.9922 23.4297 14.1918 23.4307C15.3198 23.4315 16.4477 23.4346 17.5757 23.431C18.1793 23.4291 18.783 23.4187 19.3865 23.4049C19.5598 23.401 19.6666 23.4447 19.7613 23.618C19.8736 23.8235 20.026 24.0354 20.2146 24.1621C20.5425 24.3825 20.9249 24.5035 21.3235 24.3765C21.5686 24.2986 21.8054 24.1968 22.0074 24.0089C22.4374 23.6092 22.601 22.6824 22.1555 22.1848C22.0197 22.0331 21.9171 21.8525 21.7291 21.7532C21.3256 21.5395 20.9198 21.4915 20.4815 21.6606C20.167 21.7819 19.9752 22.0289 19.7774 22.2722C19.7065 22.3594 19.6915 22.4935 19.6494 22.6104C19.4786 22.6595 13.6395 22.6769 13.3287 22.6227C13.3219 22.5109 13.309 22.3927 13.3087 22.2744C13.3066 21.3035 13.307 20.3325 13.3065 19.3616C13.3065 19.313 13.3078 19.2644 13.3053 19.2159C13.2946 18.9967 13.2649 18.9653 13.0476 18.965C12.2055 18.9638 11.3635 18.9647 10.5214 18.9647H10.1971C10.1912 18.8545 10.1832 18.7683 10.1826 18.6823C10.1802 18.2696 10.1846 17.8568 10.1774 17.4443C10.1709 17.0573 10.1525 16.6706 10.1404 16.2839C10.1379 16.2044 10.14 16.1248 10.14 16.0248C10.2459 16.0199 10.3314 16.0123 10.4169 16.0122C12.8238 16.0115 15.2307 16.0127 17.6376 16.0089C17.8177 16.0086 17.9529 16.0296 18.0256 16.233C18.1051 16.4558 18.2958 16.6038 18.4578 16.7643C18.5309 16.8368 18.6418 16.8741 18.7404 16.9148C19.2664 17.1322 19.7355 17.0413 20.1754 16.6721C20.5387 16.3671 20.7016 15.9868 20.7158 15.5188C20.7229 15.2886 20.628 15.0907 20.5206 14.9126C20.2576 14.4758 20.1363 14.3786 19.6367 14.1903C19.4233 14.1097 19.188 14.109 18.9634 14.193C18.9046 14.215 18.8424 14.2274 18.783 14.248C18.6559 14.2919 18.5308 14.3366 18.4377 14.4468C18.399 14.4924 18.3378 14.5181 18.287 14.5533C18.2614 14.5709 18.2265 14.5837 18.2125 14.6085C18.0969 14.8132 17.9852 15.0201 17.8662 15.2375H12.3088C12.3005 15.1247 12.2893 15.0398 12.2888 14.955C12.2863 14.4857 12.287 14.0163 12.2854 13.547C12.2845 13.2743 12.2409 13.231 11.9678 13.2307C11.4435 13.2302 10.9193 13.2305 10.3949 13.2304H10.1649C10.0947 12.9169 10.0799 10.7619 10.1502 10.5391C10.2336 10.5349 10.3263 10.5266 10.4189 10.5266C11.5945 10.5259 12.7702 10.5265 13.9459 10.5267C14.0014 10.5268 14.0571 10.5289 14.1126 10.5266C14.3356 10.5176 14.3759 10.4788 14.3769 10.2542C14.3789 9.76866 14.3777 9.28315 14.3778 8.79774V8.52131C14.4448 8.50806 14.4964 8.48924 14.548 8.48904C15.0247 8.48682 15.5014 8.49066 15.9779 8.48611C16.0946 8.485 16.1568 8.53112 16.2249 8.62923C16.3466 8.80482 16.4226 9.01015 16.5977 9.15368C17.0092 9.49101 17.4675 9.64465 17.9707 9.46441C18.2493 9.36457 18.5251 9.20486 18.6768 8.90931C18.6946 8.87441 18.7208 8.84377 18.7436 8.8115C19.0202 8.42077 19.0221 8.00596 18.8631 7.5687C18.7663 7.30279 18.594 7.08552 18.3791 6.93724C18.1653 6.78957 17.9227 6.65383 17.6467 6.63865C17.3825 6.62409 17.1414 6.67416 16.8989 6.80818C16.516 7.01978 16.2918 7.34203 16.1381 7.75532H13.4754C13.4689 6.56067 13.4635 5.37755 13.4744 4.17086C13.637 4.16257 13.7698 4.15013 13.9026 4.14993C14.8241 4.14841 15.7456 4.14942 16.667 4.14962C16.7227 4.14962 16.7787 4.15407 16.8338 4.14851C16.9822 4.13344 17.0091 4.10481 17.0171 3.95329C17.0214 3.87258 17.0195 3.79156 17.0194 3.71054C17.0194 2.58588 17.0192 1.46113 17.019 0.33647V0.024431C17.1365 0.0170473 17.2363 0.00541535 17.336 0.0053142C18.067 0.00460617 18.798 0.0176542 19.5284 0.000256838C19.761 -0.00530626 19.9546 0.0801632 20.1271 0.192437C20.3937 0.365904 20.6441 0.573054 20.8745 0.794769C21.1571 1.06675 21.4336 1.34511 21.6807 1.65654C21.9106 1.94603 22.1472 2.22833 22.354 2.53632C22.5581 2.84027 22.7515 3.14321 22.8093 3.52089C22.8488 3.77912 22.922 4.033 22.9931 4.28496C23.0134 4.35748 23.0721 4.42322 23.1249 4.48098C23.2159 4.58071 23.3138 4.67417 23.4129 4.76571C23.6291 4.96578 23.782 5.2143 23.9497 5.45442C24.1433 5.73187 24.3165 6.02145 24.4608 6.32429C24.6239 6.66647 24.7477 7.02868 24.88 7.38553C24.9873 7.6746 25.0824 7.96824 25.1816 8.26045C25.1943 8.29787 25.2037 8.33793 25.206 8.37738C25.2285 8.73139 25.2638 9.08541 25.2672 9.43962C25.2791 10.6854 25.282 11.9312 25.2829 13.1769C25.2831 13.3819 25.2867 13.5864 25.1373 13.7674C25.0698 13.8492 25.0683 13.9938 25.0523 14.1121C25.0189 14.3592 25.0393 14.6241 24.9573 14.8516C24.8503 15.1483 24.9035 15.4384 24.8921 15.7309L24.9376 16.3529ZM5.57538 32.8439V29.0868C5.74538 29.0383 8.92452 29.0196 9.30443 29.0641C9.35537 29.2258 9.37186 32.4962 9.31883 32.8351C9.25101 32.8429 9.17544 32.8591 9.09998 32.8594C8.00412 32.8623 6.90836 32.8633 5.81251 32.8634C5.7426 32.8634 5.67269 32.8522 5.57538 32.8439ZM4.77847 12.7957V9.4143C4.81005 9.40732 4.83855 9.39073 4.85464 9.39902C5.05571 9.50321 5.27159 9.4676 5.4824 9.46841C6.27629 9.47145 7.07028 9.47043 7.86407 9.47195C7.94957 9.47215 8.03486 9.47944 8.13575 9.48419V12.7881C7.94877 12.8525 5.02592 12.8615 4.77847 12.7957ZM15.7427 3.21249H12.8003C12.7387 3.0191 12.7203 0.548475 12.7733 0.205181C12.9364 0.151371 15.3396 0.131849 15.7436 0.185963C15.747 1.1855 15.7439 2.18969 15.7427 3.21249ZM12.1549 5.08298V7.90023C11.9752 7.95556 9.66174 7.97013 9.34259 7.91763V5.08298H12.1549ZM7.71723 18.857H5.18065C5.12167 18.6797 5.10648 16.4916 5.1603 16.2059C5.34052 16.1579 7.47762 16.1496 7.71584 16.1959C7.77333 16.4096 7.77681 18.6296 7.71723 18.857ZM8.04363 21.2617V23.5495C7.88307 23.6099 6.04982 23.6274 5.74636 23.5743C5.69036 23.3977 5.67596 21.5566 5.72829 21.265C5.91279 21.2162 7.78079 21.21 8.04363 21.2617ZM8.68039 35.0284V37.1914C8.58268 37.1985 8.49838 37.2095 8.41407 37.2099C7.96991 37.2121 7.52565 37.2085 7.08149 37.2134C6.90087 37.2154 6.72044 37.2341 6.54667 37.2446C6.47498 37.0679 6.45204 35.3658 6.50933 35.0411C6.67566 34.9858 8.37088 34.9727 8.68039 35.0284ZM0.909869 27.6669V25.5702C1.60843 25.5702 2.2928 25.5702 2.97716 25.5701C3.03416 25.7713 3.04588 27.4358 2.98848 27.6669H0.909869ZM9.64502 20.2612H11.5448C11.6029 20.4359 11.6142 22.0086 11.5568 22.2769H9.65425C9.63052 21.6091 9.64372 20.9431 9.64502 20.2612ZM0.0379011 15.2721H1.71733V16.9849C1.66143 16.9965 1.6095 17.0166 1.55746 17.0169C1.10536 17.0192 0.653154 17.0203 0.201048 17.0166C0.033532 17.0153 0.00900528 16.9976 0.00662212 16.8446C-0.00102385 16.3681 -0.000328763 15.8914 0.000465624 15.4146C0.000564922 15.369 0.0238007 15.3235 0.0379011 15.2721ZM2.36613 19.8626V21.5448H0.668624C0.660184 21.4712 0.648665 21.416 0.648367 21.3607C0.646183 20.9241 0.644793 20.4873 0.646084 20.0507C0.646679 19.8568 0.664156 19.8295 0.841801 19.827C1.30215 19.8208 1.76269 19.8238 2.22314 19.8262C2.26763 19.8265 2.31211 19.8483 2.36613 19.8626ZM8.04407 25.0887V26.6983C7.86613 26.7704 6.68567 26.7777 6.42789 26.7083V25.0887H8.04407ZM44.6353 31.4063C43.0862 31.4063 41.6958 31.1637 40.4647 30.678C39.2331 30.1925 38.1905 29.4794 37.3368 28.5388C36.4827 27.5982 35.8274 26.4503 35.3707 25.0948C34.9137 23.7396 34.6856 22.1817 34.6856 20.4217C34.6856 18.6617 34.9485 17.1043 35.475 15.7487C36.001 14.3936 36.7211 13.2453 37.6347 12.3046C38.548 11.364 39.6204 10.6509 40.852 10.1654C42.0832 9.67987 43.4037 9.43712 44.814 9.43712C45.6677 9.43712 46.4422 9.50306 47.1376 9.63435C47.8325 9.76615 48.4381 9.91261 48.9547 10.0743C49.4709 10.2365 49.8978 10.4081 50.2357 10.5902C50.5732 10.7723 50.8114 10.9041 50.9507 10.9847L49.8484 14.1101C49.3718 13.8067 48.6913 13.5184 47.8078 13.2453C46.924 12.9722 45.9656 12.8357 44.9332 12.8357C44.0395 12.8357 43.2055 12.9926 42.4308 13.306C41.6563 13.6199 40.9861 14.0902 40.4201 14.717C39.8541 15.3443 39.4119 16.1332 39.0944 17.0838C38.7766 18.0349 38.6178 19.1373 38.6178 20.3914C38.6178 21.5042 38.7416 22.5259 38.9902 23.4561C39.2382 24.3869 39.6204 25.191 40.1371 25.8685C40.6532 26.5465 41.3087 27.0722 42.1032 27.4465C42.8972 27.821 43.8505 28.0078 44.9629 28.0078C46.2932 28.0078 47.376 27.8712 48.21 27.5982C49.0441 27.325 49.6893 27.0672 50.1463 26.8243L51.1592 29.9499C50.9208 30.1119 50.5978 30.2737 50.191 30.4353C49.7838 30.5974 49.302 30.7539 48.7462 30.9056C48.19 31.0573 47.5645 31.1787 46.8695 31.2698C46.1741 31.3608 45.4294 31.4063 44.6353 31.4063ZM62.8069 23.001C62.8069 21.423 62.474 20.1742 61.8089 19.2535C61.1433 18.3332 60.2152 17.8728 59.0236 17.8728C57.832 17.8728 56.9035 18.3332 56.2384 19.2535C55.5727 20.1742 55.2403 21.423 55.2403 23.001C55.2403 24.5993 55.5727 25.8638 56.2384 26.794C56.9035 27.7247 57.832 28.1899 59.0236 28.1899C60.2152 28.1899 61.1433 27.7247 61.8089 26.794C62.474 25.8638 62.8069 24.5993 62.8069 23.001ZM66.5008 23.001C66.5008 24.2555 66.322 25.3982 65.9645 26.4298C65.6071 27.4616 65.1008 28.3416 64.4453 29.0698C63.7899 29.7981 63.0005 30.3647 62.077 30.7691C61.1536 31.1735 60.1356 31.376 59.0236 31.376C57.9112 31.376 56.8983 31.1735 55.9851 30.7691C55.0714 30.3647 54.2871 29.7981 53.6318 29.0698C52.9763 28.3416 52.4648 27.4616 52.0975 26.4298C51.7298 25.3982 51.5465 24.2555 51.5465 23.001C51.5465 21.747 51.7298 20.6091 52.0975 19.5873C52.4648 18.566 52.981 17.6908 53.6466 16.9625C54.3117 16.2343 55.1011 15.6729 56.0149 15.2783C56.9281 14.8839 57.9311 14.6867 59.0236 14.6867C60.1156 14.6867 61.1238 14.8839 62.0473 15.2783C62.9707 15.6729 63.7602 16.2343 64.4155 16.9625C65.0709 17.6908 65.582 18.566 65.9497 19.5873C66.317 20.6091 66.5008 21.747 66.5008 23.001ZM68.7645 30.9512V15.0812H72.369V30.9512H68.7645ZM72.7563 10.4385C72.7563 11.1264 72.5376 11.6726 72.1009 12.0771C71.6639 12.482 71.1478 12.684 70.552 12.684C69.936 12.684 69.4097 12.482 68.973 12.0771C68.536 11.6726 68.3178 11.1264 68.3178 10.4385C68.3178 9.73057 68.536 9.17447 68.973 8.76957C69.4097 8.36509 69.936 8.16269 70.552 8.16269C71.1478 8.16269 71.6639 8.36509 72.1009 8.76957C72.5376 9.17447 72.7563 9.73057 72.7563 10.4385ZM75.4667 15.597C76.1617 15.395 77.0652 15.2025 78.1777 15.0205C79.2896 14.8384 80.5207 14.7474 81.8715 14.7474C83.1422 14.7474 84.2049 14.9247 85.059 15.2784C85.9126 15.6326 86.5932 16.128 87.0995 16.7653C87.6059 17.4025 87.9635 18.1715 88.1719 19.0714C88.3806 19.9717 88.4848 20.958 88.4848 22.03V30.9512H84.8803V22.6065C84.8803 21.7569 84.8253 21.0339 84.7164 20.4369C84.607 19.8404 84.4283 19.3549 84.1801 18.9804C83.9316 18.6062 83.5942 18.3331 83.1674 18.1611C82.74 17.9894 82.2187 17.9032 81.6034 17.9032C81.1463 17.9032 80.6696 17.9335 80.1735 17.9942C79.6768 18.0549 79.3096 18.1056 79.0713 18.1459V30.9512H75.4667V15.597ZM91.6719 15.8094C92.2478 15.6477 92.9977 15.4657 93.9211 15.2632C94.8445 15.0613 96.0408 14.9597 97.5107 14.9597C99.4567 14.9597 100.867 15.5363 101.741 16.6894C101.84 16.6087 102.034 16.4722 102.322 16.2797C102.609 16.0877 102.972 15.8905 103.409 15.688C103.846 15.486 104.357 15.314 104.943 15.1721C105.529 15.0308 106.18 14.9597 106.894 14.9597C108.066 14.9597 109.014 15.1371 109.739 15.4908C110.464 15.845 111.025 16.3404 111.422 16.9776C111.819 17.6149 112.088 18.3787 112.227 19.2686C112.365 20.159 112.435 21.1301 112.435 22.1817V30.9511H110.499V22.819C110.499 21.7873 110.454 20.892 110.365 20.1334C110.276 19.3748 110.097 18.748 109.829 18.2521C109.561 17.7567 109.178 17.3825 108.682 17.1293C108.185 16.8767 107.54 16.75 106.745 16.75C106.15 16.75 105.608 16.8061 105.122 16.9169C104.635 17.0284 104.213 17.165 103.856 17.3266C103.498 17.4888 103.205 17.6505 102.977 17.8121C102.749 17.9742 102.585 18.0957 102.486 18.1762C102.664 18.7026 102.798 19.2942 102.888 19.9514C102.977 20.609 103.022 21.3018 103.022 22.0299V30.9511H101.085V22.819C101.085 21.7873 101.041 20.892 100.951 20.1334C100.862 19.3748 100.678 18.748 100.4 18.2521C100.122 17.7567 99.73 17.3825 99.2236 17.1293C98.7172 16.8767 98.0469 16.75 97.2128 16.75C96.2791 16.75 95.4897 16.8008 94.8445 16.9018C94.1989 17.0032 93.787 17.0942 93.6082 17.1749V30.9511H91.6719V15.8094ZM120.746 29.525C121.501 29.525 122.161 29.4998 122.727 29.4491C123.293 29.3989 123.775 29.333 124.172 29.2519V23.7293C123.953 23.6282 123.606 23.522 123.129 23.4107C122.653 23.2997 121.997 23.2437 121.163 23.2437C120.687 23.2437 120.19 23.2793 119.674 23.35C119.157 23.4211 118.68 23.5728 118.244 23.8051C117.807 24.0379 117.449 24.3565 117.172 24.7609C116.893 25.1659 116.755 25.7016 116.755 26.3692C116.755 26.9562 116.849 27.4516 117.037 27.8561C117.226 28.261 117.494 28.5843 117.842 28.8271C118.189 29.0698 118.606 29.2472 119.093 29.3581C119.579 29.4695 120.13 29.525 120.746 29.525ZM120.568 14.899C121.58 14.899 122.439 15.0461 123.144 15.3391C123.849 15.6325 124.42 16.0369 124.857 16.5529C125.294 17.0687 125.612 17.6808 125.81 18.3886C126.009 19.097 126.108 19.8655 126.108 20.6948V30.5871C125.91 30.6477 125.622 30.7136 125.244 30.7843C124.867 30.8554 124.43 30.9313 123.934 31.0119C123.437 31.0925 122.886 31.1583 122.28 31.209C121.674 31.2593 121.054 31.2849 120.419 31.2849C119.604 31.2849 118.855 31.1939 118.169 31.0119C117.484 30.8297 116.888 30.5415 116.382 30.147C115.876 29.7526 115.478 29.2472 115.191 28.6297C114.902 28.0131 114.759 27.2596 114.759 26.3692C114.759 25.5195 114.917 24.7913 115.235 24.1844C115.553 23.5775 115.999 23.0769 116.576 22.6824C117.151 22.2879 117.837 21.9996 118.631 21.8176C119.425 21.6355 120.289 21.5445 121.223 21.5445C121.501 21.5445 121.794 21.5597 122.102 21.59C122.409 21.6203 122.707 21.6611 122.995 21.7114C123.283 21.7621 123.532 21.8128 123.74 21.8631C123.949 21.9138 124.092 21.9593 124.172 21.9996V21.0286C124.172 20.4824 124.132 19.9514 124.053 19.4356C123.973 18.9196 123.8 18.4545 123.532 18.0397C123.263 17.6253 122.886 17.2915 122.399 17.0384C121.913 16.7856 121.272 16.6591 120.478 16.6591C119.346 16.6591 118.502 16.7401 117.946 16.9018C117.39 17.064 116.983 17.1953 116.725 17.2963L116.457 15.5667C116.794 15.4049 117.315 15.2532 118.021 15.1115C118.725 14.9702 119.574 14.899 120.568 14.899ZM129.564 15.8094C130.139 15.6477 130.889 15.4657 131.813 15.2632C132.736 15.0613 133.932 14.9597 135.402 14.9597C137.348 14.9597 138.758 15.5363 139.632 16.6894C139.732 16.6087 139.925 16.4722 140.213 16.2797C140.501 16.0877 140.864 15.8905 141.301 15.688C141.737 15.486 142.249 15.314 142.835 15.1721C143.42 15.0308 144.071 14.9597 144.786 14.9597C145.958 14.9597 146.906 15.1371 147.631 15.4908C148.356 15.845 148.917 16.3404 149.314 16.9776C149.711 17.6149 149.979 18.3787 150.118 19.2686C150.257 20.159 150.327 21.1301 150.327 22.1817V30.9511H148.391V22.819C148.391 21.7873 148.346 20.892 148.256 20.1334C148.167 19.3748 147.988 18.748 147.72 18.2521C147.452 17.7567 147.07 17.3825 146.573 17.1293C146.077 16.8767 145.431 16.75 144.637 16.75C144.041 16.75 143.5 16.8061 143.014 16.9169C142.527 17.0284 142.105 17.165 141.747 17.3266C141.39 17.4888 141.097 17.6505 140.869 17.8121C140.64 17.9742 140.476 18.0957 140.377 18.1762C140.556 18.7026 140.69 19.2942 140.779 19.9514C140.869 20.609 140.913 21.3018 140.913 22.0299V30.9511H138.977V22.819C138.977 21.7873 138.932 20.892 138.843 20.1334C138.754 19.3748 138.57 18.748 138.292 18.2521C138.014 17.7567 137.622 17.3825 137.115 17.1293C136.609 16.8767 135.939 16.75 135.104 16.75C134.171 16.75 133.381 16.8008 132.736 16.9018C132.09 17.0032 131.679 17.0942 131.5 17.1749V30.9511H129.564V15.8094ZM158.638 29.525C159.392 29.525 160.053 29.4998 160.619 29.4491C161.185 29.3989 161.666 29.333 162.064 29.2519V23.7293C161.845 23.6282 161.498 23.522 161.021 23.4107C160.544 23.2997 159.889 23.2437 159.055 23.2437C158.578 23.2437 158.082 23.2793 157.565 23.35C157.049 23.4211 156.572 23.5728 156.136 23.8051C155.698 24.0379 155.341 24.3565 155.063 24.7609C154.785 25.1659 154.646 25.7016 154.646 26.3692C154.646 26.9562 154.74 27.4516 154.929 27.8561C155.118 28.261 155.386 28.5843 155.733 28.8271C156.081 29.0698 156.498 29.2472 156.985 29.3581C157.471 29.4695 158.022 29.525 158.638 29.525ZM158.459 14.899C159.472 14.899 160.331 15.0461 161.036 15.3391C161.741 15.6325 162.312 16.0369 162.749 16.5529C163.185 17.0687 163.503 17.6808 163.702 18.3886C163.9 19.097 164 19.8655 164 20.6948V30.5871C163.801 30.6477 163.513 30.7136 163.136 30.7843C162.759 30.8554 162.322 30.9313 161.825 31.0119C161.329 31.0925 160.778 31.1583 160.172 31.209C159.566 31.2593 158.946 31.2849 158.31 31.2849C157.496 31.2849 156.746 31.1939 156.061 31.0119C155.376 30.8297 154.78 30.5415 154.274 30.147C153.767 29.7526 153.37 29.2472 153.082 28.6297C152.794 28.0131 152.65 27.2596 152.65 26.3692C152.65 25.5195 152.809 24.7913 153.127 24.1844C153.444 23.5775 153.891 23.0769 154.467 22.6824C155.043 22.2879 155.728 21.9996 156.523 21.8176C157.317 21.6355 158.181 21.5445 159.115 21.5445C159.392 21.5445 159.685 21.5597 159.993 21.59C160.301 21.6203 160.599 21.6611 160.887 21.7114C161.175 21.7621 161.423 21.8128 161.632 21.8631C161.84 21.9138 161.984 21.9593 162.064 21.9996V21.0286C162.064 20.4824 162.024 19.9514 161.945 19.4356C161.865 18.9196 161.691 18.4545 161.423 18.0397C161.155 17.6253 160.778 17.2915 160.291 17.0384C159.804 16.7856 159.164 16.6591 158.37 16.6591C157.238 16.6591 156.393 16.7401 155.838 16.9018C155.281 17.064 154.874 17.1953 154.616 17.2963L154.348 15.5667C154.686 15.4049 155.207 15.2532 155.912 15.1115C156.617 14.9702 157.466 14.899 158.459 14.899Z" fill="#09369C" style="fill:#09369C;fill:color(display-p3 0.0353 0.2118 0.6118);fill-opacity:1;"></path>
</svg>
